<?xml version="1.0" encoding="UTF-8" standalone="no"?>
<!-- Created with Inkscape (http://www.inkscape.org/) -->

<svg
   xmlns:dc="http://purl.org/dc/elements/1.1/"
   xmlns:cc="http://creativecommons.org/ns#"
   xmlns:rdf="http://www.w3.org/1999/02/22-rdf-syntax-ns#"
   xmlns:svg="http://www.w3.org/2000/svg"
   xmlns="http://www.w3.org/2000/svg"
   xmlns:sodipodi="http://sodipodi.sourceforge.net/DTD/sodipodi-0.dtd"
   xmlns:inkscape="http://www.inkscape.org/namespaces/inkscape"
   width="1000"
   height="426.49399"
   viewBox="0 0 264.58333 112.8432"
   version="1.1"
   id="svg28479"
   sodipodi:docname="Logo_logo.svg"
   inkscape:version="0.92.2 (5c3e80d, 2017-08-06)">
  <defs
     id="defs28473" />
  <sodipodi:namedview
     id="base"
     pagecolor="#ffffff"
     bordercolor="#666666"
     borderopacity="1.0"
     inkscape:pageopacity="0.0"
     inkscape:pageshadow="2"
     inkscape:zoom="0.7"
     inkscape:cx="511.36617"
     inkscape:cy="251.99307"
     inkscape:document-units="px"
     inkscape:current-layer="layer1"
     showgrid="false"
     units="px"
     inkscape:window-width="1366"
     inkscape:window-height="705"
     inkscape:window-x="-8"
     inkscape:window-y="-8"
     inkscape:window-maximized="1" />
  <metadata
     id="metadata28476">
    <rdf:RDF>
      <cc:Work
         rdf:about="">
        <dc:format>image/svg+xml</dc:format>
        <dc:type
           rdf:resource="http://purl.org/dc/dcmitype/StillImage" />
        <dc:title></dc:title>
      </cc:Work>
    </rdf:RDF>
  </metadata>
  <g
     inkscape:label="Layer 1"
     inkscape:groupmode="layer"
     id="layer1"
     transform="translate(0,-184.15679)">
    <g
       transform="matrix(0.54779159,0,0,0.54779159,55.804849,-123.49966)"
       id="layer1-4"
       inkscape:label="Layer 1">
      <path
         style="fill:#0c9fb5;fill-rule:nonzero;stroke:none"
         d="m 381.12758,649.86512 c 0,38.30478 -26.05054,65.30111 -62.0525,65.30111 -36.00197,0 -62.05251,-26.99633 -62.05251,-65.30111 0,-35.79635 29.75149,-60.92166 62.05251,-60.92166 32.30102,0 62.0525,25.12531 62.0525,60.92166 m -93.75726,0.14393 c 0,20.41688 14.28976,35.32346 31.70476,35.32346 17.415,0 31.70476,-14.90658 31.70476,-35.32346 0,-16.32528 -14.28976,-31.23186 -31.70476,-31.23186 -17.415,0 -31.70476,14.90658 -31.70476,31.23186"
         id="path36291"
         inkscape:connector-curvature="0" />
      <path
         style="fill:#b7d52b;fill-rule:nonzero;stroke:none"
         d="m -20.301537,668.23826 v 0.49346 c 0.246729,4.97571 3.721505,7.93647 9.663577,8.1832 h 6.9495515 56.9123025 c 4.770106,-10.34209 7.443011,-21.8767 7.443011,-34.00757 0,-44.78143 -36.228135,-81.11237 -80.968442,-81.27686 v 99.16476 7.44301"
         id="path36295"
         inkscape:connector-curvature="0" />
      <path
         style="fill:#edac09;fill-rule:nonzero;stroke:none"
         d="m -20.554435,715.13539 c -27.037456,-2.24113 -38.201972,-14.88602 -38.201972,-43.42441 V 571.14809 c -25.639322,13.65237 -43.116003,40.66927 -43.116003,71.7572 0,44.86367 36.39262,81.25629 81.276853,81.25629 13.2411573,0 25.7421255,-3.16636 36.783277,-8.77946 h -30.286063 c -1.994398,0 -4.214965,0 -6.456092,-0.24673"
         id="path36299"
         inkscape:connector-curvature="0" />
      <path
         style="fill:#0c9fb5;fill-rule:nonzero;stroke:none"
         d="M 53.213614,676.92108 H -3.6781281 -10.62768 c -5.962632,-0.24673 -9.437408,-3.22804 -9.684138,-8.1832 v -0.49345 -7.44302 -99.16475 c -0.102804,0 -0.185047,0 -0.287851,0 -13.796299,0 -26.790726,3.43366 -38.16085,9.49909 V 671.7192 c 0,28.51783 11.164516,41.18329 38.201972,43.42442 2.241127,0.22617 4.461694,0.22617 6.456092,0.22617 h 30.286063 c 16.263595,-8.26545 29.360826,-21.83558 37.030006,-38.44871"
         id="path36303"
         inkscape:connector-curvature="0" />
      <path
         style="fill:#0c9fb5;fill-rule:nonzero;stroke:none"
         d="m 173.7945,649.96998 c 0,38.59263 -26.23559,65.81513 -62.5254,65.81513 -36.28982,0 -62.525405,-27.2225 -62.525405,-65.81513 0,-36.06365 29.998212,-61.37399 62.525405,-61.37399 32.54775,0 62.5254,25.31034 62.5254,61.37399 m -94.45633,0.16449 c 0,20.5608 14.392562,35.59075 31.93093,35.59075 17.53836,0 31.93092,-15.02995 31.93092,-35.59075 0,-16.44864 -14.39256,-31.49915 -31.93092,-31.49915 -17.538368,0 -31.93093,15.05051 -31.93093,31.49915"
         id="path36307"
         inkscape:connector-curvature="0" />
      <path
         style="fill:#0c9fb5;fill-rule:nonzero;stroke:none"
         d="m 276.89459,731.11114 v -77.59647 c 0.0617,-1.37758 0.1028,-2.75515 0.1028,-4.15329 0,-1.21308 -0.0411,-2.42617 -0.1028,-3.63926 v -0.32897 c -0.0206,0 -0.0206,-0.0206 -0.0206,-0.0206 -2.11776,-33.63748 -30.86177,-56.9123 -61.92914,-56.9123 -32.28046,0 -62.0525,25.1253 -62.0525,60.90109 0,38.32534 26.05053,65.32167 62.0525,65.32167 11.96639,0 22.82249,-2.98131 31.99261,-8.36824 v 23.31595 c -0.18505,4.05048 -3.02244,6.47665 -7.87479,6.6617 h -52.01883 c 6.25048,13.54957 16.92154,24.61128 30.18326,31.33466 l 29.91597,-0.18504 c 22.04118,-1.82992 31.12905,-12.13088 29.75148,-36.33094 m -61.9497,-46.26181 c -17.415,0 -31.6842,-14.90658 -31.6842,-35.32346 0,-16.32528 14.2692,-31.23186 31.6842,-31.23186 17.415,0 31.70476,14.90658 31.70476,31.23186 0,20.41688 -14.28976,35.32346 -31.70476,35.32346"
         id="path36311"
         inkscape:connector-curvature="0" />
    </g>
  </g>
</svg>
